<?xml version="1.0" encoding="UTF-8"?>
<svg xmlns="http://www.w3.org/2000/svg" xmlns:xlink="http://www.w3.org/1999/xlink" width="43.5pt" height="43.499998pt" viewBox="0 0 43.5 43.499998" version="1.2">
<defs>
<clipPath id="clip1">
  <path d="M 0 0 L 43.003906 0 L 43.003906 43.003906 L 0 43.003906 Z M 0 0 "/>
</clipPath>
<clipPath id="clip2">
  <path d="M 0.226562 0.226562 L 43.003906 0.226562 L 43.003906 43.003906 L 0.226562 43.003906 Z M 0.226562 0.226562 "/>
</clipPath>
<clipPath id="clip3">
  <path d="M 0.226562 40.808594 L 0.226562 2.917969 C 0.226562 1.429688 1.429688 0.226562 2.917969 0.226562 L 40.816406 0.226562 C 42.296875 0.226562 43.5 1.429688 43.5 2.917969 L 43.5 40.816406 C 43.5 42.304688 42.296875 43.507812 40.808594 43.507812 L 2.917969 43.507812 C 1.429688 43.5 0.226562 42.296875 0.226562 40.808594 Z M 0.226562 40.808594 "/>
</clipPath>
<clipPath id="clip4">
  <path d="M 19 14.484375 L 35.105469 14.484375 L 35.105469 29.484375 L 19 29.484375 Z M 19 14.484375 "/>
</clipPath>
<clipPath id="clip5">
  <path d="M 10 14.484375 L 24 14.484375 L 24 29.484375 L 10 29.484375 Z M 10 14.484375 "/>
</clipPath>
<clipPath id="clip6">
  <path d="M 8.855469 14.484375 L 14 14.484375 L 14 21 L 8.855469 21 Z M 8.855469 14.484375 "/>
</clipPath>
</defs>
<g id="surface1">
<g clip-path="url(#clip1)" clip-rule="nonzero">
<path style=" stroke:none;fill-rule:nonzero;fill:rgb(100%,100%,100%);fill-opacity:1;" d="M 0 0 L 43.5 0 L 43.5 50.25 L 0 50.25 Z M 0 0 "/>
<path style=" stroke:none;fill-rule:nonzero;fill:rgb(100%,100%,100%);fill-opacity:1;" d="M 0 0 L 43.5 0 L 43.5 43.5 L 0 43.5 Z M 0 0 "/>
<path style=" stroke:none;fill-rule:nonzero;fill:rgb(100%,100%,100%);fill-opacity:1;" d="M 0 0 L 43.5 0 L 43.5 43.5 L 0 43.5 Z M 0 0 "/>
</g>
<g clip-path="url(#clip2)" clip-rule="nonzero">
<g clip-path="url(#clip3)" clip-rule="nonzero">
<path style=" stroke:none;fill-rule:nonzero;fill:rgb(8.239746%,32.939148%,60.389709%);fill-opacity:1;" d="M 0.226562 0.226562 L 43.5 0.226562 L 43.5 43.5 L 0.226562 43.5 Z M 0.226562 0.226562 "/>
</g>
</g>
<g clip-path="url(#clip4)" clip-rule="nonzero">
<path style=" stroke:none;fill-rule:nonzero;fill:rgb(100%,100%,100%);fill-opacity:1;" d="M 29.605469 14.574219 L 25.042969 14.574219 L 20.617188 23.570312 L 19.589844 29.425781 L 24.734375 29.425781 L 25.527344 24.804688 L 27.96875 24.804688 C 32.207031 24.804688 34.445312 22.785156 35.007812 19.585938 C 35.550781 16.535156 33.84375 14.574219 29.605469 14.574219 Z M 30.40625 19.609375 C 30.179688 20.886719 29.28125 21.339844 28.15625 21.339844 L 26.148438 21.339844 L 26.726562 18.042969 L 28.097656 18.042969 C 29.121094 18.039062 30.644531 18.226562 30.40625 19.609375 Z M 30.40625 19.609375 "/>
</g>
<g clip-path="url(#clip5)" clip-rule="nonzero">
<path style=" stroke:none;fill-rule:nonzero;fill:rgb(100%,100%,100%);fill-opacity:1;" d="M 23.804688 14.574219 L 23.820312 14.539062 L 19.007812 14.539062 L 14.859375 24.386719 L 13.972656 16.488281 L 10.300781 22.09375 L 11.695312 29.394531 L 16.5 29.394531 L 21.292969 19.664062 Z M 23.804688 14.574219 "/>
</g>
<g clip-path="url(#clip6)" clip-rule="nonzero">
<path style=" stroke:none;fill-rule:nonzero;fill:rgb(100%,100%,100%);fill-opacity:1;" d="M 8.855469 14.539062 L 9.960938 20.320312 L 13.765625 14.539062 Z M 8.855469 14.539062 "/>
</g>
</g>
</svg>
